<svg width="604" height="112" viewBox="0 0 604 112" fill="none" xmlns="http://www.w3.org/2000/svg">
<path d="M52.8507 101.191C39.1903 101.191 28.7771 98.8958 21.611 94.305C14.445 89.6022 10.8619 82.8281 10.8619 73.9824C10.8619 65.4727 14.7249 58.9784 22.4508 54.4996C28.8331 50.6926 39.3583 48.3973 54.0264 47.6135L93.3279 45.2621V43.0787C93.3279 39.7196 91.8163 37.2562 88.7931 35.6886C85.7699 34.0091 81.571 33.1693 76.1965 33.1693C70.7099 33.1693 66.2311 34.0651 62.76 35.8566C59.4009 37.6481 57.3855 40.1115 56.7137 43.2466H12.7094C13.9411 36.6404 17.3562 30.9299 22.9547 26.1152C28.6652 21.1885 36.0552 17.4375 45.1248 14.8622C54.3063 12.1749 64.6635 10.8313 76.1965 10.8313C96.7989 10.8313 111.803 14.0784 121.208 20.5727C130.614 26.955 135.317 36.7524 135.317 49.9648V74.1504C135.317 83.5559 135.709 91.5057 136.492 98H95.5113C94.8395 93.7451 94.5036 88.9304 94.5036 83.5559C92.0402 89.0424 87.0576 93.3532 79.5556 96.4884C72.0536 99.6236 63.1519 101.191 52.8507 101.191ZM68.9744 79.6929C76.4764 79.6929 82.4668 78.1813 86.9456 75.1581C91.5364 72.1349 93.8317 68.16 93.8317 63.2333V61.0499L68.6385 63.0653C63.2639 63.5132 59.4009 64.353 57.0496 65.5847C54.6982 66.8163 53.5225 68.6638 53.5225 71.1272C53.5225 73.8145 54.8662 75.9419 57.5534 77.5095C60.3527 78.9651 64.1597 79.6929 68.9744 79.6929ZM182.806 101.191C169.034 101.191 158.229 97.6641 150.391 90.61C142.553 83.5559 138.634 73.7025 138.634 61.0499V14.0224H179.951V49.7969C179.951 65.5847 186.893 73.4785 200.777 73.4785C208.391 73.4785 214.27 71.3511 218.412 67.0963C222.667 62.7294 224.795 56.739 224.795 49.1251V14.0224H266.112V98H225.635V80.1968C221.94 87.0269 216.285 92.2335 208.671 95.8166C201.057 99.3996 192.435 101.191 182.806 101.191ZM308.405 39.2157C310.756 30.8179 315.291 24.2117 322.009 19.397C328.839 14.5823 337.237 12.1749 347.203 12.1749C350.114 12.1749 353.809 12.3989 358.288 12.8467V47.1096C353.137 46.2138 348.21 45.766 343.508 45.766C339.029 45.766 334.942 46.3258 331.247 47.4455C327.552 48.4532 324.641 49.9648 322.513 51.9803C319.714 54.4436 317.53 57.4668 315.963 61.0499C314.507 64.6329 313.779 68.6079 313.779 72.9747V98H272.463V14.0224H308.405V39.2157ZM390.04 101.191C376.38 101.191 365.967 98.8958 358.801 94.305C351.635 89.6022 348.052 82.8281 348.052 73.9824C348.052 65.4727 351.914 58.9784 359.64 54.4996C366.023 50.6926 376.548 48.3973 391.216 47.6135L430.517 45.2621V43.0787C430.517 39.7196 429.006 37.2562 425.983 35.6886C422.96 34.0091 418.761 33.1693 413.386 33.1693C407.9 33.1693 403.421 34.0651 399.95 35.8566C396.591 37.6481 394.575 40.1115 393.903 43.2466H349.899C351.131 36.6404 354.546 30.9299 360.144 26.1152C365.855 21.1885 373.245 17.4375 382.314 14.8622C391.496 12.1749 401.853 10.8313 413.386 10.8313C433.989 10.8313 448.993 14.0784 458.398 20.5727C467.804 26.955 472.506 36.7524 472.506 49.9648V74.1504C472.506 83.5559 472.898 91.5057 473.682 98H432.701C432.029 93.7451 431.693 88.9304 431.693 83.5559C429.23 89.0424 424.247 93.3532 416.745 96.4884C409.243 99.6236 400.342 101.191 390.04 101.191ZM406.164 79.6929C413.666 79.6929 419.656 78.1813 424.135 75.1581C428.726 72.1349 431.021 68.16 431.021 63.2333V61.0499L405.828 63.0653C400.454 63.5132 396.591 64.353 394.239 65.5847C391.888 66.8163 390.712 68.6638 390.712 71.1272C390.712 73.8145 392.056 75.9419 394.743 77.5095C397.542 78.9651 401.349 79.6929 406.164 79.6929ZM534.272 101.191C504.376 101.191 481.814 95.8166 466.586 85.0675L483.549 66.0885C489.932 70.2314 497.378 73.3106 505.887 75.3261C514.509 77.3415 525.202 78.3492 537.967 78.3492C543.901 78.3492 547.988 78.0693 550.228 77.5095C552.467 76.8377 553.587 75.718 553.587 74.1504C553.587 72.8067 553.027 71.855 551.907 71.2951C550.787 70.6233 548.716 70.1754 545.693 69.9515L511.43 66.5924C498.217 65.2487 488.532 62.3935 482.374 58.0267C476.215 53.5479 473.136 47.3335 473.136 39.3837C473.136 29.6423 477.895 22.4762 487.412 17.8854C496.93 13.1827 511.542 10.8313 531.249 10.8313C554.986 10.8313 574.189 14.4703 588.857 21.7484L576.261 42.0709C569.542 38.9358 562.32 36.6964 554.594 35.3527C546.98 33.8971 538.023 33.1693 527.722 33.1693C521.339 33.1693 516.86 33.4492 514.285 34.0091C511.822 34.5689 510.59 35.6327 510.59 37.2002C510.59 38.4319 511.206 39.3277 512.438 39.8875C513.669 40.4474 515.965 40.8953 519.324 41.2312L554.426 44.4223C567.527 45.654 576.932 48.2853 582.643 52.3162C588.353 56.2352 591.209 62.2256 591.209 70.2874C591.209 90.8899 572.23 101.191 534.272 101.191Z" fill="white"/>
<path d="M21.611 94.305L16.1245 102.665L16.1705 102.696L16.2168 102.725L21.611 94.305ZM22.4508 54.4996L27.4661 63.151L27.5201 63.1198L27.5736 63.0878L22.4508 54.4996ZM54.0264 47.6135L54.56 57.5992L54.5918 57.5975L54.6236 57.5956L54.0264 47.6135ZM93.3279 45.2621L93.9251 55.2442L103.328 54.6817V45.2621H93.3279ZM88.7931 35.6886L83.9367 44.4302L84.0623 44.5L84.1899 44.5662L88.7931 35.6886ZM62.76 35.8566L58.1736 26.9704L58.1137 27.0013L58.0542 27.0331L62.76 35.8566ZM56.7137 43.2466V53.2466H64.7978L66.4917 45.3419L56.7137 43.2466ZM12.7094 43.2466L2.87881 41.4138L0.672694 53.2466H12.7094V43.2466ZM22.9547 26.1152L29.4751 33.6971L29.481 33.6919L29.487 33.6868L22.9547 26.1152ZM45.1248 14.8622L47.8563 24.4819L47.8951 24.4709L47.9337 24.4596L45.1248 14.8622ZM121.208 20.5727L115.527 28.8017L115.56 28.8247L115.593 28.8474L121.208 20.5727ZM136.492 98V108H147.772L146.42 96.8018L136.492 98ZM95.5113 98L85.6337 99.5596L86.9664 108H95.5113V98ZM94.5036 83.5559H104.504L85.3809 79.46L94.5036 83.5559ZM79.5556 96.4884L83.4115 105.715L83.4115 105.715L79.5556 96.4884ZM86.9456 75.1581L81.4457 66.8064L81.3981 66.8377L81.3509 66.8696L86.9456 75.1581ZM93.8317 61.0499H103.832V50.2179L93.0343 51.0817L93.8317 61.0499ZM68.6385 63.0653L67.841 53.0972L67.8245 53.0985L67.808 53.0999L68.6385 63.0653ZM57.0496 65.5847L61.6896 74.443L61.6896 74.443L57.0496 65.5847ZM57.5534 77.5095L52.5147 86.1473L52.7245 86.2696L52.9399 86.3816L57.5534 77.5095ZM52.8507 91.1911C40.0502 91.1911 31.8595 88.9944 27.0053 85.8847L16.2168 102.725C25.6948 108.797 38.3305 111.191 52.8507 111.191V91.1911ZM27.0976 85.9445C22.8552 83.1604 20.8619 79.5887 20.8619 73.9824H0.861909C0.861909 86.0675 6.03473 96.0441 16.1245 102.665L27.0976 85.9445ZM20.8619 73.9824C20.8619 69.2502 22.6384 65.9497 27.4661 63.151L17.4355 45.8482C6.81137 52.0071 0.861909 61.6951 0.861909 73.9824H20.8619ZM27.5736 63.0878C31.7653 60.5875 40.2227 58.3653 54.56 57.5992L53.4928 37.6277C38.4939 38.4292 25.901 40.7978 17.328 45.9114L27.5736 63.0878ZM54.6236 57.5956L93.9251 55.2442L92.7307 35.2799L53.4292 37.6313L54.6236 57.5956ZM103.328 45.2621V43.0787H83.3279V45.2621H103.328ZM103.328 43.0787C103.328 39.8573 102.587 36.5277 100.717 33.4817C98.8529 30.4433 96.231 28.281 93.3963 26.8111L84.1899 44.5662C84.3783 44.6639 84.0238 44.5171 83.671 43.942C83.5104 43.6804 83.4149 43.4311 83.3653 43.2402C83.3181 43.0582 83.3279 42.9894 83.3279 43.0787H103.328ZM93.6495 26.9471C88.5382 24.1075 82.4136 23.1693 76.1965 23.1693V43.1693C80.7284 43.1693 83.0016 43.9107 83.9367 44.4302L93.6495 26.9471ZM76.1965 23.1693C69.7214 23.1693 63.5187 24.2117 58.1736 26.9704L67.3465 44.7428C68.9436 43.9185 71.6984 43.1693 76.1965 43.1693V23.1693ZM58.0542 27.0331C52.6336 29.924 48.3419 34.5888 46.9356 41.1513L66.4917 45.3419C66.4997 45.3044 66.5012 45.3141 66.4847 45.3485C66.468 45.3832 66.4556 45.3962 66.4687 45.3801C66.4927 45.3508 66.7282 45.0736 67.4659 44.6801L58.0542 27.0331ZM56.7137 33.2466H12.7094V53.2466H56.7137V33.2466ZM22.54 45.0795C23.3127 40.9349 25.4205 37.184 29.4751 33.6971L16.4343 18.5334C9.29189 24.6758 4.56945 32.3458 2.87881 41.4138L22.54 45.0795ZM29.487 33.6868C33.8549 29.9184 39.847 26.7561 47.8563 24.4819L42.3932 5.2425C32.2633 8.1189 23.4754 12.4587 16.4223 18.5436L29.487 33.6868ZM47.9337 24.4596C56.0383 22.0875 65.426 20.8313 76.1965 20.8313V0.831282C63.9011 0.831282 52.5744 2.26232 42.3158 5.26483L47.9337 24.4596ZM76.1965 20.8313C96.1882 20.8313 108.667 24.0654 115.527 28.8017L126.89 12.3437C114.939 4.09145 97.4097 0.831282 76.1965 0.831282V20.8313ZM115.593 28.8474C121.778 33.0443 125.317 39.4443 125.317 49.9648H145.317C145.317 34.0605 139.45 20.8656 126.823 12.2979L115.593 28.8474ZM125.317 49.9648V74.1504H145.317V49.9648H125.317ZM125.317 74.1504C125.317 83.7992 125.717 92.176 126.564 99.1982L146.42 96.8018C145.7 90.8355 145.317 83.3126 145.317 74.1504H125.317ZM136.492 88H95.5113V108H136.492V88ZM105.389 96.4404C104.816 92.8093 104.504 88.5302 104.504 83.5559H84.5036C84.5036 89.3307 84.8633 94.681 85.6337 99.5596L105.389 96.4404ZM85.3809 79.46C84.2787 81.9148 81.6977 84.755 75.6996 87.2617L83.4115 105.715C92.4174 101.951 99.8017 96.17 103.626 87.6518L85.3809 79.46ZM75.6996 87.2617C69.6979 89.7699 62.1681 91.1911 52.8507 91.1911V111.191C64.1358 111.191 74.4092 109.477 83.4115 105.715L75.6996 87.2617ZM68.9744 89.6929C77.7213 89.6929 85.8815 87.9413 92.5403 83.4466L81.3509 66.8696C79.0521 68.4213 75.2315 69.6929 68.9744 69.6929V89.6929ZM92.4455 83.5098C99.4626 78.8888 103.832 71.9575 103.832 63.2333H83.8317C83.8317 64.3624 83.6101 65.381 81.4457 66.8064L92.4455 83.5098ZM103.832 63.2333V61.0499H83.8317V63.2333H103.832ZM93.0343 51.0817L67.841 53.0972L69.4359 73.0335L94.6292 71.018L93.0343 51.0817ZM67.808 53.0999C62.1922 53.5679 56.6314 54.5149 52.4095 56.7263L61.6896 74.443C62.1705 74.1911 64.3356 73.4586 69.4689 73.0308L67.808 53.0999ZM52.4095 56.7263C50.0127 57.9818 47.6746 59.8429 45.9677 62.5253C44.2349 65.2481 43.5225 68.2383 43.5225 71.1272H63.5225C63.5225 71.5527 63.3979 72.3875 62.8409 73.2628C62.3096 74.0977 61.7351 74.4192 61.6896 74.443L52.4095 56.7263ZM43.5225 71.1272C43.5225 77.9925 47.3327 83.1244 52.5147 86.1473L62.5921 68.8717C62.3131 68.7089 62.6202 68.8205 62.9851 69.3983C63.1649 69.6829 63.3112 70.0086 63.4064 70.3497C63.5003 70.6861 63.5225 70.9584 63.5225 71.1272H43.5225ZM52.9399 86.3816C57.7188 88.8667 63.324 89.6929 68.9744 89.6929V69.6929C64.9953 69.6929 62.9865 69.0635 62.167 68.6373L52.9399 86.3816ZM150.391 90.61L143.701 98.0429L143.701 98.0429L150.391 90.61ZM138.634 14.0224V4.02244H128.634V14.0224H138.634ZM179.951 14.0224H189.951V4.02244H179.951V14.0224ZM218.412 67.0963L211.25 60.1176L211.248 60.1201L218.412 67.0963ZM224.795 14.0224V4.02244H214.795V14.0224H224.795ZM266.112 14.0224H276.112V4.02244H266.112V14.0224ZM266.112 98V108H276.112V98H266.112ZM225.635 98H215.635V108H225.635V98ZM225.635 80.1968H235.635L216.839 75.4386L225.635 80.1968ZM208.671 95.8166L212.929 104.865L212.929 104.865L208.671 95.8166ZM182.806 91.1911C170.729 91.1911 162.578 88.1248 157.08 83.177L143.701 98.0429C153.879 107.203 167.338 111.191 182.806 111.191V91.1911ZM157.08 83.177C151.768 78.3962 148.634 71.4846 148.634 61.0499H128.634C128.634 75.9204 133.337 88.7155 143.701 98.0429L157.08 83.177ZM148.634 61.0499V14.0224H128.634V61.0499H148.634ZM138.634 24.0224H179.951V4.02244H138.634V24.0224ZM169.951 14.0224V49.7969H189.951V14.0224H169.951ZM169.951 49.7969C169.951 58.9389 171.933 67.6632 177.648 74.162C183.579 80.906 191.936 83.4785 200.777 83.4785V63.4785C195.734 63.4785 193.678 62.1041 192.667 60.9543C191.44 59.5591 189.951 56.4426 189.951 49.7969H169.951ZM200.777 83.4785C210.289 83.4785 219.058 80.7675 225.577 74.0724L211.248 60.1201C209.481 61.9348 206.493 63.4785 200.777 63.4785V83.4785ZM225.575 74.0749C232.076 67.403 234.795 58.6635 234.795 49.1251H214.795C214.795 54.8145 213.259 58.0558 211.25 60.1176L225.575 74.0749ZM234.795 49.1251V14.0224H214.795V49.1251H234.795ZM224.795 24.0224H266.112V4.02244H224.795V24.0224ZM256.112 14.0224V98H276.112V14.0224H256.112ZM266.112 88H225.635V108H266.112V88ZM235.635 98V80.1968H215.635V98H235.635ZM216.839 75.4386C214.246 80.2315 210.266 84.014 204.413 86.7684L212.929 104.865C222.304 100.453 229.633 93.8223 234.43 84.9549L216.839 75.4386ZM204.413 86.7684C198.311 89.6401 191.176 91.1911 182.806 91.1911V111.191C193.695 111.191 203.803 109.159 212.929 104.865L204.413 86.7684ZM308.405 39.2157H298.405L318.035 41.912L308.405 39.2157ZM322.009 19.397L316.248 11.2236L316.216 11.2461L316.184 11.2688L322.009 19.397ZM358.288 12.8467H368.288V3.79687L359.283 2.89638L358.288 12.8467ZM358.288 47.1096L356.574 56.9617L368.288 58.9988V47.1096H358.288ZM331.247 47.4455L333.878 57.0931L334.013 57.0563L334.147 57.0157L331.247 47.4455ZM322.513 51.9803L329.119 59.4874L329.257 59.3661L329.391 59.2398L322.513 51.9803ZM315.963 61.0499L306.801 57.0417L306.748 57.1632L306.698 57.2861L315.963 61.0499ZM313.779 98V108H323.779V98H313.779ZM272.463 98H262.463V108H272.463V98ZM272.463 14.0224V4.02244H262.463V14.0224H272.463ZM308.405 14.0224H318.405V4.02244H308.405V14.0224ZM318.035 41.912C319.809 35.5749 323.072 30.9382 327.834 27.5252L316.184 11.2688C307.51 17.4853 301.704 26.0609 298.775 36.5194L318.035 41.912ZM327.771 27.5704C332.611 24.1587 338.894 22.1749 347.203 22.1749V2.17493C335.581 2.17493 325.068 5.0059 316.248 11.2236L327.771 27.5704ZM347.203 22.1749C349.654 22.1749 352.987 22.3666 357.293 22.7971L359.283 2.89638C354.631 2.43116 350.574 2.17493 347.203 2.17493V22.1749ZM348.288 12.8467V47.1096H368.288V12.8467H348.288ZM360.001 37.2575C354.346 36.2741 348.844 35.766 343.508 35.766V55.766C347.577 55.766 351.928 56.1536 356.574 56.9617L360.001 37.2575ZM343.508 35.766C338.2 35.766 333.118 36.4293 328.347 37.8753L334.147 57.0157C336.765 56.2223 339.858 55.766 343.508 55.766V35.766ZM328.616 37.7979C323.802 39.1106 319.271 41.2766 315.636 44.7208L329.391 59.2398C330.01 58.653 331.301 57.7959 333.878 57.0931L328.616 37.7979ZM315.907 44.4732C311.957 47.9492 308.925 52.1866 306.801 57.0417L325.124 65.0581C326.136 62.7471 327.471 60.938 329.119 59.4874L315.907 44.4732ZM306.698 57.2861C304.698 62.2092 303.779 67.4834 303.779 72.9747H323.779C323.779 69.7323 324.316 67.0567 325.228 64.8136L306.698 57.2861ZM303.779 72.9747V98H323.779V72.9747H303.779ZM313.779 88H272.463V108H313.779V88ZM282.463 98V14.0224H262.463V98H282.463ZM272.463 24.0224H308.405V4.02244H272.463V24.0224ZM298.405 14.0224V39.2157H318.405V14.0224H298.405ZM358.801 94.305L353.314 102.665L353.36 102.696L353.406 102.725L358.801 94.305ZM359.64 54.4996L364.656 63.151L364.71 63.1198L364.763 63.0878L359.64 54.4996ZM391.216 47.6135L391.75 57.5992L391.781 57.5975L391.813 57.5956L391.216 47.6135ZM430.517 45.2621L431.115 55.2442L440.517 54.6817V45.2621H430.517ZM425.983 35.6886L421.126 44.4302L421.252 44.5L421.38 44.5662L425.983 35.6886ZM399.95 35.8566L395.363 26.9704L395.303 27.0013L395.244 27.0331L399.95 35.8566ZM393.903 43.2466V53.2466H401.987L403.681 45.3419L393.903 43.2466ZM349.899 43.2466L340.068 41.4138L337.862 53.2466H349.899V43.2466ZM360.144 26.1152L366.665 33.6971L366.671 33.6919L366.677 33.6868L360.144 26.1152ZM382.314 14.8622L385.046 24.4819L385.085 24.4709L385.123 24.4596L382.314 14.8622ZM458.398 20.5727L452.716 28.8017L452.749 28.8247L452.783 28.8474L458.398 20.5727ZM473.682 98V108H484.961L483.61 96.8018L473.682 98ZM432.701 98L422.823 99.5596L424.156 108H432.701V98ZM431.693 83.5559H441.693L422.57 79.46L431.693 83.5559ZM416.745 96.4884L420.601 105.715L420.601 105.715L416.745 96.4884ZM424.135 75.1581L418.635 66.8064L418.588 66.8377L418.54 66.8696L424.135 75.1581ZM431.021 61.0499H441.021V50.2179L430.224 51.0817L431.021 61.0499ZM405.828 63.0653L405.031 53.0972L405.014 53.0985L404.998 53.0999L405.828 63.0653ZM394.239 65.5847L398.879 74.443L398.879 74.443L394.239 65.5847ZM394.743 77.5095L389.704 86.1473L389.914 86.2696L390.13 86.3816L394.743 77.5095ZM390.04 91.1911C377.24 91.1911 369.049 88.9944 364.195 85.8847L353.406 102.725C362.884 108.797 375.52 111.191 390.04 111.191V91.1911ZM364.287 85.9445C360.045 83.1604 358.052 79.5887 358.052 73.9824H338.052C338.052 86.0675 343.224 96.0441 353.314 102.665L364.287 85.9445ZM358.052 73.9824C358.052 69.2502 359.828 65.9497 364.656 63.151L354.625 45.8482C344.001 52.0071 338.052 61.6951 338.052 73.9824H358.052ZM364.763 63.0878C368.955 60.5875 377.412 58.3653 391.75 57.5992L390.682 37.6277C375.683 38.4292 363.091 40.7978 354.518 45.9114L364.763 63.0878ZM391.813 57.5956L431.115 55.2442L429.92 35.2799L390.619 37.6313L391.813 57.5956ZM440.517 45.2621V43.0787H420.517V45.2621H440.517ZM440.517 43.0787C440.517 39.8573 439.776 36.5277 437.907 33.4817C436.043 30.4433 433.421 28.281 430.586 26.8111L421.38 44.5662C421.568 44.6639 421.213 44.5171 420.861 43.942C420.7 43.6804 420.605 43.4311 420.555 43.2402C420.508 43.0582 420.517 42.9894 420.517 43.0787H440.517ZM430.839 26.9471C425.728 24.1075 419.603 23.1693 413.386 23.1693V43.1693C417.918 43.1693 420.191 43.9107 421.126 44.4302L430.839 26.9471ZM413.386 23.1693C406.911 23.1693 400.708 24.2117 395.363 26.9704L404.536 44.7428C406.133 43.9185 408.888 43.1693 413.386 43.1693V23.1693ZM395.244 27.0331C389.823 29.924 385.531 34.5888 384.125 41.1513L403.681 45.3419C403.689 45.3044 403.691 45.3141 403.674 45.3485C403.658 45.3832 403.645 45.3962 403.658 45.3801C403.682 45.3508 403.918 45.0736 404.656 44.6801L395.244 27.0331ZM393.903 33.2466H349.899V53.2466H393.903V33.2466ZM359.73 45.0795C360.502 40.9349 362.61 37.184 366.665 33.6971L353.624 18.5334C346.481 24.6758 341.759 32.3458 340.068 41.4138L359.73 45.0795ZM366.677 33.6868C371.045 29.9184 377.037 26.7561 385.046 24.4819L379.583 5.2425C369.453 8.1189 360.665 12.4587 353.612 18.5436L366.677 33.6868ZM385.123 24.4596C393.228 22.0875 402.616 20.8313 413.386 20.8313V0.831282C401.091 0.831282 389.764 2.26232 379.505 5.26483L385.123 24.4596ZM413.386 20.8313C433.378 20.8313 445.857 24.0654 452.716 28.8017L464.08 12.3437C452.128 4.09145 434.599 0.831282 413.386 0.831282V20.8313ZM452.783 28.8474C458.968 33.0443 462.506 39.4443 462.506 49.9648H482.506C482.506 34.0605 476.639 20.8656 464.013 12.2979L452.783 28.8474ZM462.506 49.9648V74.1504H482.506V49.9648H462.506ZM462.506 74.1504C462.506 83.7992 462.906 92.176 463.754 99.1982L483.61 96.8018C482.89 90.8355 482.506 83.3126 482.506 74.1504H462.506ZM473.682 88H432.701V108H473.682V88ZM442.579 96.4404C442.005 92.8093 441.693 88.5302 441.693 83.5559H421.693C421.693 89.3307 422.053 94.681 422.823 99.5596L442.579 96.4404ZM422.57 79.46C421.468 81.9148 418.887 84.755 412.889 87.2617L420.601 105.715C429.607 101.951 436.991 96.17 440.816 87.6518L422.57 79.46ZM412.889 87.2617C406.887 89.7699 399.358 91.1911 390.04 91.1911V111.191C401.325 111.191 411.599 109.477 420.601 105.715L412.889 87.2617ZM406.164 89.6929C414.911 89.6929 423.071 87.9413 429.73 83.4466L418.54 66.8696C416.242 68.4213 412.421 69.6929 406.164 69.6929V89.6929ZM429.635 83.5098C436.652 78.8888 441.021 71.9575 441.021 63.2333H421.021C421.021 64.3624 420.8 65.381 418.635 66.8064L429.635 83.5098ZM441.021 63.2333V61.0499H421.021V63.2333H441.021ZM430.224 51.0817L405.031 53.0972L406.626 73.0335L431.819 71.018L430.224 51.0817ZM404.998 53.0999C399.382 53.5679 393.821 54.5149 389.599 56.7263L398.879 74.443C399.36 74.1911 401.525 73.4586 406.659 73.0308L404.998 53.0999ZM389.599 56.7263C387.202 57.9818 384.864 59.8429 383.157 62.5253C381.425 65.2481 380.712 68.2383 380.712 71.1272H400.712C400.712 71.5527 400.588 72.3875 400.03 73.2628C399.499 74.0977 398.925 74.4192 398.879 74.443L389.599 56.7263ZM380.712 71.1272C380.712 77.9925 384.522 83.1244 389.704 86.1473L399.782 68.8717C399.503 68.7089 399.81 68.8205 400.175 69.3983C400.354 69.6829 400.501 70.0086 400.596 70.3497C400.69 70.6861 400.712 70.9584 400.712 71.1272H380.712ZM390.13 86.3816C394.908 88.8667 400.514 89.6929 406.164 89.6929V69.6929C402.185 69.6929 400.176 69.0635 399.357 68.6373L390.13 86.3816ZM466.586 85.0675L459.13 78.4034L451.654 86.7677L460.819 93.2371L466.586 85.0675ZM483.549 66.0885L488.994 57.7007L481.805 53.0342L476.093 59.4244L483.549 66.0885ZM505.887 75.3261L503.583 85.0569L503.597 85.0602L503.611 85.0635L505.887 75.3261ZM550.228 77.5095L552.653 87.2109L552.878 87.1545L553.101 87.0877L550.228 77.5095ZM551.907 71.2951L546.762 79.8701L547.091 80.0677L547.435 80.2394L551.907 71.2951ZM545.693 69.9515L544.717 79.9038L544.835 79.9154L544.954 79.9242L545.693 69.9515ZM511.43 66.5924L510.418 76.5411L510.436 76.5429L510.454 76.5447L511.43 66.5924ZM482.374 58.0267L476.492 66.114L476.54 66.1493L476.589 66.184L482.374 58.0267ZM487.412 17.8854L491.757 26.8923L491.8 26.8717L491.842 26.8507L487.412 17.8854ZM588.857 21.7484L597.357 27.0167L603.147 17.6754L593.302 12.7905L588.857 21.7484ZM576.261 42.0709L572.032 51.1328L580.081 54.889L584.76 47.3393L576.261 42.0709ZM554.594 35.3527L552.717 45.1749L552.799 45.1905L552.881 45.2049L554.594 35.3527ZM514.285 34.0091L512.161 24.2373L512.115 24.2473L512.069 24.2578L514.285 34.0091ZM512.438 39.8875L508.3 48.9912L508.3 48.9912L512.438 39.8875ZM519.324 41.2312L518.329 51.1815L518.374 51.186L518.418 51.1901L519.324 41.2312ZM554.426 44.4223L555.362 34.4662L555.347 34.4648L555.332 34.4634L554.426 44.4223ZM582.643 52.3162L576.876 60.4859L576.93 60.524L576.984 60.5613L582.643 52.3162ZM534.272 91.1911C505.295 91.1911 485.152 85.9323 472.353 76.8978L460.819 93.2371C478.476 105.701 503.456 111.191 534.272 111.191V91.1911ZM474.042 91.7315L491.005 72.7526L476.093 59.4244L459.13 78.4034L474.042 91.7315ZM478.105 74.4763C485.581 79.3292 494.121 82.8159 503.583 85.0569L508.192 65.5953C500.634 63.8052 494.282 61.1336 488.994 57.7007L478.105 74.4763ZM503.611 85.0635C513.227 87.3114 524.741 88.3492 537.967 88.3492V68.3492C525.663 68.3492 515.791 67.3716 508.164 65.5886L503.611 85.0635ZM537.967 88.3492C543.833 88.3492 549.07 88.1065 552.653 87.2109L547.802 67.808C546.906 68.0321 543.97 68.3492 537.967 68.3492V88.3492ZM553.101 87.0877C555.106 86.4861 557.662 85.3927 559.818 83.2369C562.232 80.8231 563.587 77.6164 563.587 74.1504H543.587C543.587 73.3246 543.74 72.37 544.146 71.3959C544.551 70.4239 545.114 69.6568 545.676 69.0948C546.712 68.0586 547.588 67.861 547.354 67.9312L553.101 87.0877ZM563.587 74.1504C563.587 72.0816 563.147 69.6729 561.786 67.3586C560.4 65.0027 558.429 63.3756 556.379 62.3509L547.435 80.2394C546.505 79.7745 545.373 78.9032 544.547 77.499C543.746 76.1365 543.587 74.8755 543.587 74.1504H563.587ZM557.052 62.7202C553.707 60.7129 549.471 60.204 546.431 59.9788L544.954 79.9242C546.182 80.0151 546.964 80.1353 547.4 80.2295C547.609 80.2746 547.654 80.296 547.578 80.2693C547.514 80.2468 547.204 80.1349 546.762 79.8701L557.052 62.7202ZM546.668 59.9992L512.406 56.6401L510.454 76.5447L544.717 79.9038L546.668 59.9992ZM512.442 56.6437C499.819 55.3601 492.205 52.7391 488.158 49.8693L476.589 66.184C484.859 72.0479 496.615 75.1374 510.418 76.5411L512.442 56.6437ZM488.255 49.9393C484.816 47.4377 483.136 44.3 483.136 39.3837H463.136C463.136 50.3671 467.615 59.658 476.492 66.114L488.255 49.9393ZM483.136 39.3837C483.136 36.212 483.885 33.9679 485.036 32.235C486.218 30.4539 488.247 28.5854 491.757 26.8923L483.068 8.87846C477.06 11.7762 471.951 15.7861 468.375 21.1711C464.767 26.6043 463.136 32.8139 463.136 39.3837H483.136ZM491.842 26.8507C499.253 23.1889 511.979 20.8313 531.249 20.8313V0.831282C511.105 0.831282 494.607 3.17645 482.982 8.92014L491.842 26.8507ZM531.249 20.8313C554.087 20.8313 571.605 24.3514 584.412 30.7063L593.302 12.7905C576.773 4.58925 555.885 0.831282 531.249 0.831282V20.8313ZM580.358 16.48L567.761 36.8026L584.76 47.3393L597.357 27.0167L580.358 16.48ZM580.489 33.0091C572.926 29.4797 564.853 26.9868 556.308 25.5006L552.881 45.2049C559.787 46.406 566.158 48.3918 572.032 51.1328L580.489 33.0091ZM556.472 25.5306C548.076 23.9254 538.461 23.1693 527.722 23.1693V43.1693C537.584 43.1693 545.885 43.8688 552.717 45.1749L556.472 25.5306ZM527.722 23.1693C521.347 23.1693 515.897 23.4251 512.161 24.2373L516.409 43.7809C517.824 43.4734 521.331 43.1693 527.722 43.1693V23.1693ZM512.069 24.2578C510.04 24.7188 507.333 25.6245 504.978 27.6585C502.258 30.007 500.59 33.3857 500.59 37.2002H520.59C520.59 38.1557 520.393 39.2576 519.878 40.3584C519.367 41.4495 518.679 42.2521 518.05 42.795C516.926 43.7653 516.066 43.8593 516.501 43.7604L512.069 24.2578ZM500.59 37.2002C500.59 39.5601 501.209 42.1303 502.812 44.4611C504.373 46.7328 506.431 48.1419 508.3 48.9912L516.576 30.7839C517.212 31.0733 518.346 31.7546 519.292 33.1305C520.279 34.5655 520.59 36.072 520.59 37.2002H500.59ZM508.3 48.9912C511.207 50.3126 515.031 50.8518 518.329 51.1815L520.319 31.2808C518.825 31.1315 517.741 30.9733 516.998 30.8284C516.632 30.7571 516.412 30.7009 516.308 30.6712C516.188 30.6368 516.307 30.6618 516.576 30.7839L508.3 48.9912ZM518.418 51.1901L553.521 54.3812L555.332 34.4634L520.229 31.2722L518.418 51.1901ZM553.49 54.3784C566.14 55.5677 573.369 58.0103 576.876 60.4859L588.41 44.1465C580.496 38.5603 568.914 35.7403 555.362 34.4662L553.49 54.3784ZM576.984 60.5613C579.501 62.2882 581.209 64.8978 581.209 70.2874H601.209C601.209 59.5533 597.206 50.1821 588.301 44.0711L576.984 60.5613ZM581.209 70.2874C581.209 73.848 580.408 76.4918 579.129 78.5746C577.834 80.682 575.703 82.777 572.204 84.6764C564.905 88.6381 552.673 91.1911 534.272 91.1911V111.191C553.828 111.191 570.065 108.594 581.745 102.254C587.735 99.0028 592.721 94.6595 596.171 89.041C599.637 83.3979 601.209 77.0281 601.209 70.2874H581.209Z" fill="black" style="mix-blend-mode:overlay"/>
</svg>
